<svg xmlns="http://www.w3.org/2000/svg" viewBox="0 0 24 24" fill="none" stroke="currentColor" stroke-width="1.5" stroke-linecap="round" stroke-linejoin="round">
  <!-- Diploma enrollado con cinta -->
  <path d="M3 8c0-1.1.9-2 2-2h14c1.1 0 2 .9 2 2v8c0 1.1-.9 2-2 2H5c-1.1 0-2-.9-2-2V8z"/>
  <path d="M3 8l9 5 9-5"/>
  <rect x="8" y="11" width="8" height="0.5" fill="currentColor"/>
  <rect x="8" y="13" width="8" height="0.5" fill="currentColor"/>
  <path d="M19 6V4a1 1 0 00-1-1H6a1 1 0 00-1 1v2"/>
  <circle cx="18" cy="16" r="2" fill="none" stroke="currentColor" stroke-width="1.5"/>
  <path d="M18 18l2 3"/>
  <path d="M18 18l-2 3"/>
</svg>
