<svg xmlns="http://www.w3.org/2000/svg" viewBox="0 0 24 24" fill="none" stroke="currentColor" stroke-width="1.5" stroke-linecap="round" stroke-linejoin="round">
  <!-- Pista de baile con siluetas -->
  <rect x="3" y="3" width="18" height="18" rx="2" fill="none"/>
  <path d="M3 3l18 18" opacity="0.1" stroke-width="0.5"/>
  <path d="M21 3L3 21" opacity="0.1" stroke-width="0.5"/>
  <!-- Silueta bailando 1 -->
  <path d="M8 10c0-.5.4-1 1-1s1 .5 1 1-.4 1-1 1-1-.5-1-1z" fill="currentColor"/>
  <path d="M9 11v3l-1 2"/>
  <path d="M9 14l2-1"/>
  <!-- Silueta bailando 2 -->
  <path d="M14 10c0-.5.4-1 1-1s1 .5 1 1-.4 1-1 1-1-.5-1-1z" fill="currentColor"/>
  <path d="M15 11v3l1 2"/>
  <path d="M15 14l-2-1"/>
</svg>
